PathFileType	4	(X/Y/Z)	pose_F01_0-91.trc
DataRate	CameraRate	NumFrames	NumMarkers	Units	OrigDataRate	OrigDataStartFrame	OrigNumFrames
30	30	5	21	m	30	45	91
Frame#	Time	CHip			RHip			RKnee			RAnkle			RBigToe			RSmallToe			RHeel			LHip			LKnee			LAnkle			LBigToe			LSmallToe			LHeel			Neck			Nose			RShoulder			RElbow			RWrist			LShoulder			LElbow			LWrist			
		X1	Y1	Z1	X2	Y2	Z2	X3	Y3	Z3	X4	Y4	Z4	X5	Y5	Z5	X6	Y6	Z6	X7	Y7	Z7	X8	Y8	Z8	X9	Y9	Z9	X10	Y10	Z10	X11	Y11	Z11	X12	Y12	Z12	X13	Y13	Z13	X14	Y14	Z14	X15	Y15	Z15	X16	Y16	Z16	X17	Y17	Z17	X18	Y18	Z18	X19	Y19	Z19	X20	Y20	Z20	X21	Y21	Z21	
45	1.5	-0.19814191109043572	1.890226860057816	-0.582195452949388	-0.21281666972231308	1.8880600877576381	-0.5102186621892854	-0.21825217042469405	1.7419380991559712	-0.4398437287398039	-0.22315147274628516	1.6082018460658711	-0.3522697728407302	-0.24603838971760672	1.5767102496543857	-0.3512621356867783	-0.2438025252751991	1.58538872056635	-0.32156418705443424	-0.22036914944690514	1.6038977456727874	-0.3549497415313059	-0.18012491557416552	1.8947555004795889	-0.6481565811392179	-0.17058789030617796	1.740268278420658	-0.6359481543693134	-0.1645715724648367	1.597303565207823	-0.6212752627209631	-0.18633778474614696	1.5545187368337738	-0.6147942354190834	-0.17597418033645557	1.5614509567806527	-0.6472147782635095	-0.1585878440517438	1.5876864358056777	-0.6095060196519347	-0.18912725418081636	2.0516789498881316	-0.5827559394735367	-0.20433180413704444	2.116885168355258	-0.5945365504926995	-0.209048414509121	2.043731477275358	-0.4853264226850139	-0.21485513795097624	1.9618060986332906	-0.47399175719780495	-0.21044611031562915	1.9379282632331716	-0.44310462442711007	-0.16142372641879255	2.0574251839333897	-0.6813625363207012	-0.1529798366851828	1.9753621443071276	-0.7139631269301475	-0.15783203628477602	1.8915855655508091	-0.7206097156626411
46	1.5333333333333334	-0.1969955754139344	1.885806750489762	-0.5781726066709765	-0.21163878179962636	1.8835846302479453	-0.5060402206357199	-0.21444644496473825	1.7373884628500929	-0.4386102925725663	-0.21884455950635845	1.599474335645304	-0.35188449340135364	-0.24603838971760672	1.5767102496543857	-0.3512621356867783	-0.2438025252751991	1.58538872056635	-0.32156418705443424	-0.2163959819510937	1.5972158004079917	-0.35447392330342814	-0.17999355407890003	1.8893885720310786	-0.6471681910815762	-0.16738458325228894	1.736340116063633	-0.6347647356952898	-0.16468881396312154	1.5959548697794954	-0.6206940978003168	-0.18841475075715045	1.5543702433002067	-0.6125779699788125	-0.17512777156404868	1.5612535355746653	-0.6439537859665933	-0.15687265423056346	1.5852109123760723	-0.6105706032391466	-0.18516792867515863	2.0507464417001717	-0.5872754433561747	-0.20188688907758098	2.1222945559663233	-0.6067426727204491	-0.2090181942514948	2.04499221487394	-0.485792832828802	-0.21787228489873547	1.9613181639773403	-0.46626292550703163	-0.2147519436735159	1.910597393660715	-0.4346073175337535	-0.15925177544425895	2.057340420585716	-0.68383518552441	-0.15221999322147414	1.9714371398212265	-0.7103080513030211	-0.15898449637403347	1.8904017821174246	-0.714864871248117
47	1.5666666666666667	-0.19550971735509234	1.8855253279421351	-0.5835929614276475	-0.210272755156923	1.8836673772207921	-0.5114762199876823	-0.2133052083760152	1.745481059851457	-0.44548660115736316	-0.219004295405928	1.6007997482451666	-0.35176059324908127	-0.24603838971760672	1.5767102496543857	-0.3512621356867783	-0.2438025252751991	1.58538872056635	-0.32156418705443424	-0.216408043961287	1.597448924920799	-0.35450707654730357	-0.17774123104659978	1.8880114645818544	-0.6493390645294131	-0.16796697881400166	1.7402998199320954	-0.6387272520162208	-0.16196436388536384	1.5975301777716953	-0.6196213227116094	-0.18631592010258777	1.5545526959866742	-0.6147428075025267	-0.17508763518385298	1.5612988065222535	-0.6440167736176163	-0.15409860773173495	1.5867068589721602	-0.6093616878046982	-0.1839048076727534	2.050886074883788	-0.5926931547166392	-0.20068823326698798	2.1249006405525135	-0.612493624971311	-0.20591096807842604	2.047582245736348	-0.49322978720717936	-0.21004333842003658	1.956776499036413	-0.45670533523172285	-0.2190577770314027	1.8832665240882585	-0.4261100106403969	-0.15799679183530543	2.0550607843500663	-0.6888195534600332	-0.14990709875245453	1.9703595866056192	-0.7121035976631941	-0.15247731855914948	1.8920975527331891	-0.7223637741508072
48	1.6	-0.19474333593470908	1.8889798382329117	-0.5895993916833623	-0.20951406206112036	1.8882003546190333	-0.5177437409972667	-0.21267367324336475	1.7482602066874147	-0.45115335981255905	-0.22166328211115893	1.6079616129069383	-0.3537805811999657	-0.24603838971760672	1.5767102496543857	-0.3512621356867783	-0.2438025252751991	1.58538872056635	-0.32156418705443424	-0.21875143176384387	1.6007015525246449	-0.3558937018872331	-0.17875987585201275	1.8909031051660625	-0.6529091771453895	-0.167959392129591	1.7376440031378506	-0.6383962063399558	-0.16500777697186914	1.5947293708213808	-0.6202645825320786	-0.18632961763786726	1.554563688225645	-0.6148382832460223	-0.17595475283122858	1.5613025251740897	-0.6472304812440738	-0.1571210211171629	1.5865134010966808	-0.61041171046266	-0.182760453709913	2.0523235740119823	-0.598639748912172	-0.20368846300698124	2.1250602866890715	-0.6133147512543075	-0.20478098558608823	2.0503167859410225	-0.4992936999000202	-0.20934065331230853	1.9593369341126674	-0.4547819007783026	-0.22150743276439158	1.8863156833111623	-0.40697164282050097	-0.1575079390030631	2.055402973498822	-0.6972155066119342	-0.14937370009490997	1.970535316897063	-0.720643074745816	-0.15312288885110595	1.8842206352480102	-0.724084791780463
49	1.6333333333333333	-0.19194091229561092	1.887814089713551	-0.5887101296289388	-0.20968579687117664	1.8857640278451226	-0.5175844511921665	-0.21324227346058774	1.7445717963179486	-0.45018267387460115	-0.22188526376469156	1.6051268712951152	-0.3581997015628857	-0.24603838971760672	1.5767102496543857	-0.3512621356867783	-0.2438025252751991	1.58538872056635	-0.32156418705443424	-0.21929891263378742	1.5988348372957346	-0.36080852667291	-0.1761083664310536	1.888505104340866	-0.6518050227543017	-0.16851957692234787	1.7364355837428558	-0.6377196934542539	-0.1629115791657812	1.5949043829729759	-0.622414926672342	-0.18842424124841442	1.5543881666492774	-0.6125420338439017	-0.17514465419053984	1.561402556312975	-0.6439539263260733	-0.15495997028241798	1.5867053795723398	-0.6126555512427669	-0.18155432012517192	2.052496576000741	-0.6040611606070712	-0.21014179228108637	2.1227247684074633	-0.6070341914348941	-0.20077769427256492	2.0519242787872543	-0.5126543583623823	-0.20731153171286565	1.9642044604568745	-0.4496192226412948	-0.22109869571096682	1.8897921955043464	-0.3899293352766512	-0.1561932431173415	2.055450387727495	-0.702547080788537	-0.14641164169979232	1.9678185798050474	-0.7195930275416644	-0.15274597149689842	1.8840321491951215	-0.7240396093906101
